<svg xmlns="http://www.w3.org/2000/svg" width="152.446" height="48.148" fill="none"><g style="fill:currentColor"><g style="fill:currentColor"><g class="fills"><path d="M57.698 38.667c0 1.333-.494 2.395-1.456 3.16-.962.766-2.294 1.136-3.996 1.136s-3.108-.272-4.193-.79v-2.321c.69.321 1.406.568 2.195.765.789.198 1.48.272 2.171.272.986 0 1.702-.198 2.171-.568.468-.37.69-.864.69-1.506 0-.568-.222-1.037-.641-1.432-.42-.395-1.308-.864-2.64-1.383-1.381-.568-2.343-1.185-2.91-1.901-.568-.716-.839-1.58-.839-2.568 0-1.259.444-2.247 1.332-2.963.888-.716 2.097-1.087 3.601-1.087 1.431 0 2.887.321 4.317.939l-.789 2c-1.332-.568-2.541-.84-3.577-.84-.789 0-1.406.173-1.825.519-.42.345-.617.815-.617 1.382 0 .396.074.717.247 1.013.172.271.444.543.814.79.37.247 1.06.568 2.047.988 1.11.469 1.924.888 2.442 1.284.518.395.888.839 1.135 1.358a4.73 4.73 0 0 1 .321 1.753Z" class="st0" style="fill:#f5f5f5;fill-opacity:1"/></g><g class="fills"><path d="M66.553 42.963c-1.43 0-2.565-.519-3.354-1.556h-.148c.098.963.148 1.556.148 1.753v4.667h-2.418V31.358h1.949c.049.222.173.716.345 1.531h.124c.764-1.161 1.899-1.729 3.404-1.729 1.43 0 2.54.519 3.33 1.556.789 1.037 1.184 2.469 1.184 4.346 0 1.876-.395 3.308-1.209 4.37-.814 1.012-1.949 1.531-3.355 1.531Zm-.592-9.827c-.962 0-1.652.271-2.096.839-.444.568-.666 1.457-.666 2.692v.37c0 1.383.222 2.395.666 3.012.444.618 1.159.939 2.146.939.838 0 1.48-.346 1.948-1.037.469-.692.691-1.679.691-2.939 0-1.284-.222-2.247-.666-2.913-.493-.642-1.159-.963-2.023-.963Z" class="st0" style="fill:#f5f5f5;fill-opacity:1"/></g><g class="fills"><path d="m81.477 42.765-.493-1.58h-.074c-.543.692-1.11 1.161-1.653 1.408-.567.247-1.283.37-2.146.37-1.11 0-1.998-.296-2.615-.914-.616-.617-.937-1.456-.937-2.568 0-1.185.444-2.074 1.307-2.666.864-.593 2.196-.914 3.996-.988l1.974-.074v-.617c0-.741-.173-1.284-.518-1.63-.345-.346-.863-.543-1.579-.543a5.4 5.4 0 0 0-1.677.247c-.543.173-1.061.37-1.554.617l-.79-1.728a8.565 8.565 0 0 1 2.023-.741 9.081 9.081 0 0 1 2.072-.247c1.456 0 2.541.321 3.281.938.74.618 1.11 1.63 1.11 2.988v7.679l-1.727.049Zm-3.626-1.654c.888 0 1.579-.247 2.122-.741.542-.493.789-1.185.789-2.074v-.987l-1.456.074c-1.134.049-1.973.222-2.491.568-.518.345-.789.864-.789 1.555 0 .519.148.914.444 1.185.32.297.789.42 1.381.42Z" class="st0" style="fill:#f5f5f5;fill-opacity:1"/></g><g class="fills"><path d="M92.775 31.16c.493 0 .888.025 1.209.099l-.247 2.247a4.992 4.992 0 0 0-1.061-.123c-.962 0-1.751.321-2.343.938-.592.642-.913 1.457-.913 2.469v5.951h-2.417V31.358h1.899l.321 2h.123c.37-.691.864-1.21 1.48-1.63a3.66 3.66 0 0 1 1.949-.568Z" class="st0" style="fill:#f5f5f5;fill-opacity:1"/></g><g class="fills"><path d="m98.868 36.741 1.381-1.704 3.454-3.679h2.787l-4.588 4.889 4.884 6.518h-2.837l-3.65-5.012-1.332 1.087v3.901h-2.393v-16.05h2.393v7.828l-.099 2.222Z" class="st0" style="fill:#f5f5f5;fill-opacity:1"/></g><g class="fills"><path d="m116.135 42.765-.493-1.58h-.074c-.543.692-1.11 1.161-1.653 1.408-.567.247-1.283.37-2.146.37-1.11 0-1.998-.296-2.615-.914-.616-.617-.937-1.456-.937-2.568 0-1.185.444-2.074 1.307-2.666.864-.593 2.196-.914 3.997-.988l1.973-.074v-.617c0-.741-.173-1.284-.518-1.63-.345-.37-.863-.543-1.579-.543a5.4 5.4 0 0 0-1.677.247c-.543.173-1.061.37-1.554.617l-.79-1.728a8.565 8.565 0 0 1 2.023-.741 9.081 9.081 0 0 1 2.072-.247c1.456 0 2.541.321 3.281.938.74.618 1.11 1.63 1.11 2.988v7.679l-1.727.049Zm-3.601-1.654c.888 0 1.579-.247 2.121-.741.543-.493.79-1.185.79-2.074v-.987l-1.456.074c-1.134.049-1.973.222-2.491.568-.518.345-.79.864-.79 1.555 0 .519.148.914.444 1.185.321.297.765.42 1.382.42Z" class="st0" style="fill:#f5f5f5;fill-opacity:1"/></g><g class="fills"><path d="M129.332 39.506c0 1.111-.394 1.975-1.208 2.568s-1.974.889-3.478.889c-1.53 0-2.738-.222-3.651-.691v-2.099c1.332.617 2.59.938 3.749.938 1.48 0 2.245-.444 2.245-1.358 0-.296-.074-.518-.247-.716-.172-.197-.444-.395-.814-.593a13.36 13.36 0 0 0-1.578-.691c-1.308-.518-2.196-1.012-2.664-1.531-.469-.518-.691-1.16-.691-1.975 0-.988.395-1.728 1.184-2.272.789-.543 1.85-.815 3.207-.815 1.332 0 2.614.272 3.798.815l-.789 1.827c-1.233-.518-2.269-.765-3.108-.765-1.283 0-1.924.37-1.924 1.086 0 .346.173.667.493.914.321.247 1.061.593 2.171 1.012.937.371 1.628.692 2.047 1.013.42.296.74.642.938 1.037.197.395.32.864.32 1.407Z" class="st0" style="fill:#f5f5f5;fill-opacity:1"/></g><g class="fills"><path d="M140.014 39.506c0 1.111-.395 1.975-1.209 2.568-.814.593-1.974.889-3.478.889-1.53 0-2.738-.222-3.651-.691v-2.099c1.332.617 2.59.938 3.749.938 1.48 0 2.245-.444 2.245-1.358 0-.296-.074-.518-.247-.716-.172-.197-.444-.395-.814-.593a13.36 13.36 0 0 0-1.578-.691c-1.308-.518-2.196-1.012-2.664-1.531-.469-.518-.691-1.16-.691-1.975 0-.988.395-1.728 1.184-2.272.789-.543 1.85-.815 3.207-.815a9.06 9.06 0 0 1 3.799.815l-.79 1.827c-1.233-.518-2.269-.765-3.108-.765-1.283 0-1.924.37-1.924 1.086 0 .346.173.667.493.914.321.247 1.061.593 2.171 1.012.937.371 1.628.692 2.048 1.013.419.296.74.642.937 1.037.222.395.321.864.321 1.407Z" class="st0" style="fill:#f5f5f5;fill-opacity:1"/></g><g class="fills"><path d="M148.031 42.963c-1.776 0-3.158-.519-4.169-1.556-1.012-1.037-1.505-2.469-1.505-4.271 0-1.852.469-3.334 1.381-4.395.938-1.062 2.196-1.605 3.824-1.605 1.505 0 2.689.469 3.577 1.383.863.913 1.307 2.172 1.307 3.777v1.309h-7.598c.025 1.111.346 1.951.888 2.543.543.593 1.357.889 2.369.889.666 0 1.307-.074 1.874-.197.592-.124 1.209-.346 1.875-.642v1.975a8.1 8.1 0 0 1-1.801.592c-.567.149-1.258.198-2.022.198Zm-.444-9.975c-.765 0-1.382.247-1.851.74-.468.494-.74 1.21-.838 2.124h5.18c-.025-.938-.247-1.654-.691-2.148-.419-.469-1.036-.716-1.8-.716Z" class="st0" style="fill:#f5f5f5;fill-opacity:1"/></g></g><g class="fills" style="fill:#000"><path d="M18.501 0c-.839 0-1.678.173-2.418.494a6.067 6.067 0 0 0-1.924 1.259 6.458 6.458 0 0 0-1.332 2 5.789 5.789 0 0 0-.493 2.346c0 .839.172 1.679.493 2.42a6.27 6.27 0 0 0 1.332 1.925c.568.568 1.184 1.013 1.924 1.334.74.321 1.579.494 2.418.494.863 0 1.677-.173 2.417-.494a6.226 6.226 0 0 0 1.924-1.334 5.839 5.839 0 0 0 1.332-1.925 6.148 6.148 0 0 0 .494-2.42 5.79 5.79 0 0 0-.494-2.346c-.32-.741-.789-1.457-1.332-2C22.3 1.21 21.658.815 20.918.494A6.044 6.044 0 0 0 18.501 0ZM6.118 16.099c-.839 0-1.604.099-2.344.42-.74.321-1.455.79-1.998 1.333-.567.568-.937 1.259-1.258 2a5.789 5.789 0 0 0-.493 2.346v13.58h28.392v3.778H0v2.419c0 .865.173 1.679.493 2.42a6.36 6.36 0 0 0 1.258 1.926 6.917 6.917 0 0 0 1.998 1.333 5.784 5.784 0 0 0 2.344.494h24.791c.839 0 1.603-.173 2.343-.494a6.29 6.29 0 0 0 1.998-1.333 6.102 6.102 0 0 0 1.332-1.926c.321-.741.42-1.58.42-2.42v-13.58H8.609v-3.679h28.392v-2.518c0-.84-.098-1.605-.419-2.346-.321-.741-.789-1.457-1.332-2-.543-.568-1.258-1.012-1.998-1.333-.74-.321-1.505-.42-2.343-.42H6.118Z" class="st0" style="fill:currentColor;fill-opacity:1"/></g></g></svg>