<svg xmlns="http://www.w3.org/2000/svg" xml:space="preserve" style="enable-background:new 0 0 186.6 186.6" viewBox="0 0 186.6 186.6">
<path fill="#328f31" d="M114.6 156.8c-.4 0-.8.1-1.1.1.5-.6 1.1-1.1 1.6-1.7.5-.6 1-1.2 1.4-1.7.4-.6.7-1.2.9-1.7.2-.6.4-1.1.4-1.7 0-.6-.1-1.2-.3-1.7-.2-.5-.5-1-.9-1.3-.4-.4-.8-.7-1.4-.9-.5-.2-1.1-.3-1.8-.3-.9 0-1.8.2-2.4.5-.7.4-1.3.9-2 1.6l1.7 1.6c.3-.4.7-.7 1.1-.9.4-.3.8-.4 1.3-.4.6 0 1 .2 1.4.5.3.3.5.8.5 1.5 0 .5-.1 1-.4 1.5s-.7 1.1-1.2 1.7c-.5.6-1.1 1.2-1.8 1.9s-1.5 1.4-2.3 2.2v1.7h9.3v-2.6h-2.7c-.6 0-.9 0-1.3.1m12.1-10.7h-2.2c-.5.3-1 .5-1.5.7s-1.1.4-1.8.5v1.9h2.5v7.6h-2.9v2.5h8.4v-2.5h-2.5v-10.7zm-64 0h-2.2c-.5.3-1 .5-1.5.7s-1.1.4-1.8.5v1.9h2.5v7.6h-2.9v2.5h8.4v-2.5h-2.5v-10.7zm12.3 1.3c-.5-.5-1-.9-1.6-1.2-.6-.2-1.2-.4-1.9-.4-.6 0-1.2.1-1.7.3s-1 .5-1.4.9-.7.9-.9 1.4c-.2.5-.4 1.2-.4 1.8 0 .7.1 1.3.3 1.8.2.5.5.9.8 1.3.3.3.8.6 1.2.7.5.2 1 .2 1.6.2.2 0 .4 0 .7-.1.2-.1.5-.2.7-.3s.5-.3.7-.4l.6-.6c0 .8-.1 1.4-.3 1.9-.1.5-.3.9-.6 1.3-.2.3-.5.6-.8.7-.3.1-.7.2-1 .2-.4 0-.8-.1-1.1-.3-.4-.2-.7-.4-.9-.7l-1.6 1.8c.4.4.9.8 1.6 1.1.6.3 1.4.5 2.3.5.7 0 1.4-.1 2-.4.6-.3 1.2-.7 1.7-1.3s.9-1.3 1.2-2.2c.3-.9.4-2 .4-3.2s-.1-2.2-.4-3c-.4-.6-.8-1.3-1.2-1.8m-2.3 4.5c-.3.2-.7.3-1 .3-.5 0-.9-.1-1.2-.4-.3-.3-.5-.8-.5-1.5s.2-1.3.5-1.6.7-.5 1.2-.5.9.2 1.3.6c.4.4.6 1.1.8 2.1-.5.5-.8.8-1.1 1m-39.2-44.5-6.7 11.7 7.3 4.2 1.3-2.2-4.7-2.7 5.4-9.5-2.6-1.5zm5.2 18 2.9 1 1.8-2.8 3.9 1.3-.3 3.3 3.1 1.1.4-14.2-3.5-1.2-8.3 11.5zm9.3-8.6c-.1.7-.1 1.5-.2 2.3-.1.8-.1 1.5-.2 2.2l-.1 1.3-2.7-.9.7-1.1c.4-.6.8-1.2 1.2-1.9.4-.7.9-1.3 1.3-1.9zm19.4 6.2c-.2-.9-.5-1.7-.9-2.3-.5-.7-1.1-1.2-1.9-1.6s-1.7-.7-2.7-.9l-3.8-.7-2.6 13.3 3.9.8c1 .2 1.9.2 2.7.1.8-.1 1.6-.4 2.3-.8.7-.4 1.3-1 1.7-1.8.5-.8.8-1.7 1.1-2.9.3-1.3.3-2.3.2-3.2m-3.2 2.4c-.2.8-.4 1.5-.7 2-.3.5-.6.9-1 1.2s-.8.4-1.3.5-1 0-1.6-.1l-.6-.1 1.7-8.4.6.1c.6.1 1.1.3 1.5.5s.8.5 1 .9c.3.4.4.9.5 1.4s.1 1.2-.1 2m17.1 1.2c.3-.2.6-.4.8-.6.2-.2.4-.5.5-.8s.2-.6.2-.9c.1-.6 0-1.2-.2-1.6-.2-.4-.5-.8-1-1.1-.4-.3-.9-.5-1.5-.7s-1.2-.3-1.9-.3l-4.6-.4-1.1 13.5 5 .4c.7.1 1.4 0 2.1-.1.6-.1 1.2-.3 1.7-.6s.9-.7 1.2-1.1c.3-.5.5-1.1.6-1.7.1-.9-.1-1.6-.6-2.2-.4-.6-1.1-1-2.1-1.2v-.1c.3-.2.6-.4.9-.5m-5-3.9 1.4.1c.7.1 1.2.2 1.6.5.3.2.5.6.4 1.1 0 .5-.2.9-.6 1.2s-.9.4-1.7.3l-1.4-.1.3-3.1zm1 8.9-1.7-.1.3-3.5 1.7.1c.8.1 1.5.3 1.9.6s.6.8.5 1.3c-.2 1.2-1 1.7-2.7 1.6M96.9 121h-8.4v13.5h8.7v-2.6l-5.6.1v-3.2h4.6v-2.5h-4.7v-2.7l5.5-.1-.1-2.5zm14 12.5 3.4-.3-3.6-5.1c.7-.4 1.2-.9 1.6-1.6.4-.7.5-1.5.4-2.5-.1-.8-.3-1.5-.6-2s-.7-.9-1.2-1.2-1.1-.5-1.7-.5c-.6-.1-1.3-.1-2 0l-4.9.5 1.3 13.5 3-.3-.5-4.9 1.7-.2 3.1 4.6zm-5-6.9-.4-3.8 1.6-.1c.8-.1 1.4 0 1.9.2.4.2.7.7.8 1.3.1.7-.1 1.2-.5 1.6-.4.4-1 .6-1.8.7l-1.6.1zm18.1-2.8.5 2.4 2.2-.4.4 2.3c-.1.2-.3.3-.6.4-.2.1-.5.2-.8.3-1.2.2-2.3.1-3-.6-.8-.6-1.3-1.6-1.6-3-.1-.7-.2-1.3-.1-1.8.1-.6.2-1.1.5-1.5.2-.4.6-.8.9-1.1.4-.3.8-.5 1.4-.6.6-.1 1.1-.1 1.4 0 .4.1.8.3 1.2.5l1.3-2.2c-.5-.4-1.2-.7-1.9-.9-.8-.2-1.6-.2-2.5-.1-.9.2-1.7.5-2.4 1s-1.3 1.1-1.8 1.8-.8 1.5-1 2.5c-.2.9-.2 1.9.1 3 .2 1.1.6 2.1 1.1 2.8.5.8 1.1 1.4 1.8 1.9s1.5.8 2.3.9c.8.1 1.7.1 2.6-.1.9-.2 1.8-.5 2.5-1s1.3-1 1.7-1.5l-1.2-6.1-5 1.1zm14.9 1.4-1-2.9 4.4-1.4-.8-2.4-4.4 1.3-.8-2.5 5.2-1.7-.8-2.4-8.1 2.5 4.1 12.9 8.3-2.6-.8-2.4-5.3 1.6zm13.1-9.5 6.2 4.5 2.8-1.4-6-12.1-2.6 1.3 2.1 4.3c.4.7.8 1.5 1.2 2.2.5.8.9 1.4 1.3 2h-.1l-2.5-2.1-6.2-4.4-2.8 1.4 6 12.1 2.6-1.3-2.1-4.3c-.4-.7-.8-1.4-1.2-2.2-.5-.7-.9-1.4-1.3-2h.1l2.5 2zM34.5 52l31.2 64.3c3.6.6 7.2 1.2 10.9 1.5-13.4-27.9-30.4-63.2-31.4-65-1.7-3 2.7-4.8 2.7-4.8h-19c3.7.9 5.6 4 5.6 4m105.4.8c-1 1.8-18 37.2-31.3 65.2 3.6-.4 7.2-.8 10.8-1.5l31.1-64.4s1.9-3.2 5.6-4.1h-19c.1-.1 4.5 1.8 2.8 4.8m-40.7 85c-3.9 8.3-6.5 13.7-6.5 13.7s-2.6-5.4-6.6-13.7c-3.5-.2-7-.4-10.4-.8l17 35 16.9-34.9c-3.5.3-7 .6-10.4.7"/>
<path fill="#328f31" d="M88.4 40v3.9c-1.8.4-3.7 1-5.5 1.9-11.3 5.2-16.2 28.1 5.5 34.5v21.6c-3.2-.3-6.1-1.5-9.9-4.2l-2.8 6.2s6.1 4.7 12.7 5.3v4.9c0 .8-.4 3.1-3 3.9h12.9c-2.8-.9-3-3.3-3-4v-5.2c7.9-1.3 14.6-5.9 15.3-16.5.8-12.9-8.7-17.6-15.3-19V50.7c5.2.4 8 2.1 9 2.5l3.8-6.8s-5.5-2.9-12.8-3.1V40h35.5c3.9 0 8.2 2 8.2 2l-3.1-11.3s-3 2.5-6.5 2.5h-75c-3.5 0-6.5-2.5-6.5-2.5L44.8 42s4.3-2 8.2-2h35.4zm-6.2 27c-3.9-5.1-.4-13.7 6.2-15.9v20.7c-2.4-.9-4.5-2.5-6.2-4.8m13 34.6V81.7c11.2 2.2 8.9 17.7 0 19.9"/>
<path fill="#328f31" d="M93.3 0C41.9 0 0 41.9 0 93.3s41.9 93.3 93.3 93.3 93.3-41.9 93.3-93.3S144.8 0 93.3 0zm0 175.4c-45.3 0-82.1-36.8-82.1-82.1S48 11.2 93.3 11.2s82.1 36.8 82.1 82.1-36.8 82.1-82.1 82.1z"/></svg>